<svg viewBox="0 0 930 1534" xmlns="http://www.w3.org/2000/svg"><g fill="#e20626"><path d="M295.6.34c63.94 44.39 112.08 106.31 161.3 165.58 43.93 53.74 67.3 125.78 55.3 194.86-11.21 75.08-72.43 131.77-81.31 207.47-9.04 73.29 30.77 139.72 39.02 211.06 8.18 64.02 4.36 137.39-42.53 186.76-82.79 84.9-238.57 79.37-314.51-12.22-44.63-55.45-75.7-125.63-72.28-197.9-.15-58.18 23.6-113.4 53.43-162.31 33.81-55.21 77.27-103.73 122.29-150 72.75-78.89 124.31-183.41 118.86-292.68C331.5 98.55 314.21 49.02 295.6.34M605.44 450.65c23.44-28.11 53.74-49.22 85.52-66.98-23.52 44.16-44.71 93.7-38.32 144.79 14.17 85.74 68.38 157.24 125.24 220.09 51.49 61.84 104.68 125.39 132.18 202.1 26.48 79.29 27.88 170.64-13.01 245.33-50.71 95.02-174.63 144.24-276.11 106.78-68-24.69-113.56-95.02-114.34-166.51l-4.36-5.22c3.34-35.83 4.82-73.21 20.95-106.16 17.91-42.36 50.78-79.04 54.75-126.55 14.65-98.13-45.33-185.75-51.87-281.55-3.43-65.03 37-121.02 79.37-166.12"/><path d="M4.69 977.91c2.64-.93 7.94-2.72 10.59-3.66 47.74 100.78 161.77 160.44 271.59 153.82 37.86 2.65 74.15-12.54 111.85-9.74 6.47 44.94 4.13 92.14 22.9 134.43 22.59 55.06 64.49 103.97 121.12 125.46 87.54 35.21 185.99 21.73 271.98-11.21-1.4 8.49-3.97 16.82-10.51 22.9-64.34 65.57-147.06 113.78-237.48 132.16-115.82 26.01-241.15 5.22-342.01-57.48C98.93 1388.66 14.34 1250.11 2.12 1104c-2.19-42.05-1.72-84.27 2.57-126.09"/></g></svg>